<svg xmlns="http://www.w3.org/2000/svg" width="72" height="96" viewBox="0 0 72 96" shape-rendering="crispEdges">
<rect x="24" y="0" width="6" height="6" fill="#1a1a1a"/>
<rect x="30" y="0" width="6" height="6" fill="#1a1a1a"/>
<rect x="36" y="0" width="6" height="6" fill="#1a1a1a"/>
<rect x="42" y="0" width="6" height="6" fill="#1a1a1a"/>
<rect x="48" y="0" width="6" height="6" fill="#1a1a1a"/>
<rect x="18" y="6" width="6" height="6" fill="#1a1a1a"/>
<rect x="24" y="6" width="6" height="6" fill="#1a1a1a"/>
<rect x="30" y="6" width="6" height="6" fill="#1a1a1a"/>
<rect x="36" y="6" width="6" height="6" fill="#1a1a1a"/>
<rect x="42" y="6" width="6" height="6" fill="#1a1a1a"/>
<rect x="48" y="6" width="6" height="6" fill="#1a1a1a"/>
<rect x="54" y="6" width="6" height="6" fill="#1a1a1a"/>
<rect x="12" y="12" width="6" height="6" fill="#1a1a1a"/>
<rect x="18" y="12" width="6" height="6" fill="#1a1a1a"/>
<rect x="24" y="12" width="6" height="6" fill="#1a1a1a"/>
<rect x="30" y="12" width="6" height="6" fill="#1a1a1a"/>
<rect x="36" y="12" width="6" height="6" fill="#1a1a1a"/>
<rect x="42" y="12" width="6" height="6" fill="#1a1a1a"/>
<rect x="48" y="12" width="6" height="6" fill="#1a1a1a"/>
<rect x="54" y="12" width="6" height="6" fill="#1a1a1a"/>
<rect x="60" y="12" width="6" height="6" fill="#1a1a1a"/>
<rect x="12" y="18" width="6" height="6" fill="#1a1a1a"/>
<rect x="18" y="18" width="6" height="6" fill="#c68642"/>
<rect x="24" y="18" width="6" height="6" fill="#c68642"/>
<rect x="30" y="18" width="6" height="6" fill="#c68642"/>
<rect x="36" y="18" width="6" height="6" fill="#c68642"/>
<rect x="42" y="18" width="6" height="6" fill="#c68642"/>
<rect x="48" y="18" width="6" height="6" fill="#c68642"/>
<rect x="54" y="18" width="6" height="6" fill="#1a1a1a"/>
<rect x="60" y="18" width="6" height="6" fill="#1a1a1a"/>
<rect x="6" y="24" width="6" height="6" fill="#1a1a1a"/>
<rect x="12" y="24" width="6" height="6" fill="#1a1a1a"/>
<rect x="18" y="24" width="6" height="6" fill="#c68642"/>
<rect x="24" y="24" width="6" height="6" fill="#c68642"/>
<rect x="30" y="24" width="6" height="6" fill="#c68642"/>
<rect x="36" y="24" width="6" height="6" fill="#c68642"/>
<rect x="42" y="24" width="6" height="6" fill="#c68642"/>
<rect x="48" y="24" width="6" height="6" fill="#c68642"/>
<rect x="54" y="24" width="6" height="6" fill="#c68642"/>
<rect x="60" y="24" width="6" height="6" fill="#1a1a1a"/>
<rect x="6" y="30" width="6" height="6" fill="#1a1a1a"/>
<rect x="12" y="30" width="6" height="6" fill="#c68642"/>
<rect x="18" y="30" width="6" height="6" fill="#1a1a1a"/>
<rect x="24" y="30" width="6" height="6" fill="#ffffff"/>
<rect x="30" y="30" width="6" height="6" fill="#c68642"/>
<rect x="36" y="30" width="6" height="6" fill="#c68642"/>
<rect x="42" y="30" width="6" height="6" fill="#ffffff"/>
<rect x="48" y="30" width="6" height="6" fill="#1a1a1a"/>
<rect x="54" y="30" width="6" height="6" fill="#c68642"/>
<rect x="60" y="30" width="6" height="6" fill="#2a2a50"/>
<rect x="12" y="36" width="6" height="6" fill="#c68642"/>
<rect x="18" y="36" width="6" height="6" fill="#c68642"/>
<rect x="24" y="36" width="6" height="6" fill="#c68642"/>
<rect x="30" y="36" width="6" height="6" fill="#c68642"/>
<rect x="36" y="36" width="6" height="6" fill="#c68642"/>
<rect x="42" y="36" width="6" height="6" fill="#c68642"/>
<rect x="48" y="36" width="6" height="6" fill="#c68642"/>
<rect x="54" y="36" width="6" height="6" fill="#c68642"/>
<rect x="12" y="42" width="6" height="6" fill="#c68642"/>
<rect x="18" y="42" width="6" height="6" fill="#c68642"/>
<rect x="24" y="42" width="6" height="6" fill="#c68642"/>
<rect x="30" y="42" width="6" height="6" fill="#a56b35"/>
<rect x="36" y="42" width="6" height="6" fill="#a56b35"/>
<rect x="42" y="42" width="6" height="6" fill="#c68642"/>
<rect x="48" y="42" width="6" height="6" fill="#c68642"/>
<rect x="12" y="48" width="6" height="6" fill="#3d2b1f"/>
<rect x="18" y="48" width="6" height="6" fill="#3d2b1f"/>
<rect x="24" y="48" width="6" height="6" fill="#c68642"/>
<rect x="30" y="48" width="6" height="6" fill="#c68642"/>
<rect x="36" y="48" width="6" height="6" fill="#c68642"/>
<rect x="42" y="48" width="6" height="6" fill="#c68642"/>
<rect x="48" y="48" width="6" height="6" fill="#3d2b1f"/>
<rect x="54" y="48" width="6" height="6" fill="#3d2b1f"/>
<rect x="12" y="54" width="6" height="6" fill="#3d2b1f"/>
<rect x="18" y="54" width="6" height="6" fill="#3d2b1f"/>
<rect x="24" y="54" width="6" height="6" fill="#3d2b1f"/>
<rect x="30" y="54" width="6" height="6" fill="#b55b5b"/>
<rect x="36" y="54" width="6" height="6" fill="#b55b5b"/>
<rect x="42" y="54" width="6" height="6" fill="#3d2b1f"/>
<rect x="48" y="54" width="6" height="6" fill="#3d2b1f"/>
<rect x="54" y="54" width="6" height="6" fill="#3d2b1f"/>
<rect x="60" y="54" width="6" height="6" fill="#3d2b1f"/>
<rect x="12" y="60" width="6" height="6" fill="#3d2b1f"/>
<rect x="18" y="60" width="6" height="6" fill="#3d2b1f"/>
<rect x="24" y="60" width="6" height="6" fill="#3d2b1f"/>
<rect x="30" y="60" width="6" height="6" fill="#3d2b1f"/>
<rect x="36" y="60" width="6" height="6" fill="#3d2b1f"/>
<rect x="42" y="60" width="6" height="6" fill="#3d2b1f"/>
<rect x="48" y="60" width="6" height="6" fill="#3d2b1f"/>
<rect x="54" y="60" width="6" height="6" fill="#3d2b1f"/>
<rect x="18" y="66" width="6" height="6" fill="#3d2b1f"/>
<rect x="24" y="66" width="6" height="6" fill="#3d2b1f"/>
<rect x="30" y="66" width="6" height="6" fill="#3d2b1f"/>
<rect x="36" y="66" width="6" height="6" fill="#3d2b1f"/>
<rect x="42" y="66" width="6" height="6" fill="#3d2b1f"/>
<rect x="48" y="66" width="6" height="6" fill="#3d2b1f"/>
<rect x="24" y="72" width="6" height="6" fill="#c68642"/>
<rect x="30" y="72" width="6" height="6" fill="#c68642"/>
<rect x="36" y="72" width="6" height="6" fill="#c68642"/>
<rect x="42" y="72" width="6" height="6" fill="#c68642"/>
<rect x="18" y="78" width="6" height="6" fill="#2a2a50"/>
<rect x="24" y="78" width="6" height="6" fill="#2a2a50"/>
<rect x="30" y="78" width="6" height="6" fill="#3a3a3a"/>
<rect x="36" y="78" width="6" height="6" fill="#3a3a3a"/>
<rect x="42" y="78" width="6" height="6" fill="#2a2a50"/>
<rect x="48" y="78" width="6" height="6" fill="#2a2a50"/>
<rect x="12" y="84" width="6" height="6" fill="#3a3a3a"/>
<rect x="18" y="84" width="6" height="6" fill="#3a3a3a"/>
<rect x="24" y="84" width="6" height="6" fill="#3a3a3a"/>
<rect x="30" y="84" width="6" height="6" fill="#3a3a3a"/>
<rect x="36" y="84" width="6" height="6" fill="#3a3a3a"/>
<rect x="42" y="84" width="6" height="6" fill="#3a3a3a"/>
<rect x="48" y="84" width="6" height="6" fill="#3a3a3a"/>
<rect x="54" y="84" width="6" height="6" fill="#3a3a3a"/>
<rect x="6" y="90" width="6" height="6" fill="#3a3a3a"/>
<rect x="12" y="90" width="6" height="6" fill="#3a3a3a"/>
<rect x="18" y="90" width="6" height="6" fill="#3a3a3a"/>
<rect x="24" y="90" width="6" height="6" fill="#3a3a3a"/>
<rect x="30" y="90" width="6" height="6" fill="#3a3a3a"/>
<rect x="36" y="90" width="6" height="6" fill="#3a3a3a"/>
<rect x="42" y="90" width="6" height="6" fill="#3a3a3a"/>
<rect x="48" y="90" width="6" height="6" fill="#3a3a3a"/>
<rect x="54" y="90" width="6" height="6" fill="#3a3a3a"/>
<rect x="60" y="90" width="6" height="6" fill="#3a3a3a"/>
</svg>